<?xml version="1.0" encoding="UTF-8"?>
<svg id="Capa_1" data-name="Capa 1" xmlns="http://www.w3.org/2000/svg" viewBox="0 0 384 216">
  <defs>
    <style>
      .cls-1 {
        fill: #0e0f0f;
      }
    </style>
  </defs>
  <g>
    <path class="cls-1" d="M223.16,114.49c-.8,0-1.63-.08-2.5-.24-1.07-.2-2.11-.49-3.11-.77-1.19-.33-2.32-.56-3.43-.8-2.88-.61-4.27-.8-5.25.2l-.83-1.33c1.45-3.06,3.2-3.77,6.57-3.32,1.37.18,2.67.55,3.93.9.92.26,1.86.45,2.79.7,1.01.27,1.91.55,2.89.75s2.06.24,2.99-.18c.15.24.3.48.45.73.05.08.49.67.49.77-1,2.3-2.83,2.58-4.98,2.58Z"/>
    <path class="cls-1" d="M102.2,121.62l3.71-2.01c.19-2.76.3-6.02.3-9.46s-.11-6.55-.3-9.42l-3.71-2v-2.12h27.39v9.31h-2.12l-2.57-5.3h-11.35c-.15,2.5-.27,5.3-.3,8.13l11.16-.61v4.58l-11.16-.64c.04,2.61.15,5.15.3,7.45l4.5,2.08v2.12h-15.85v-2.12Z"/>
    <path class="cls-1" d="M176.7,123.74h-15.55v-2.12l3.52-1.85c-.34-1.25-.76-2.61-1.25-4.05h-11.05c-.53,1.55-.98,2.99-1.36,4.24l3.29,1.66v2.12h-12.18v-2.12l3.22-1.74c1.44-2.91,3.1-6.58,4.39-9.65,1.4-3.33,3.78-9.46,5.18-13.62h8.25c.49,1.51,2.61,7.04,4.88,12.3,1.78,4.2,3.71,8.21,5.18,10.82l3.48,1.89v2.12ZM157.97,102.06c-1.29,2.76-2.54,5.6-3.52,8.1l-.68,1.7h8.32c-.23-.53-.45-1.06-.64-1.63-1.06-2.69-2.31-5.56-3.48-8.17Z"/>
    <path class="cls-1" d="M217.61,112.12l.05.03c.11,2.2.19,4.16.24,6.74-2.1.85-4.4,1.41-6.9,1.41-7.03,0-9.76-4.59-9.76-10.37,0-5.3,3.05-10.19,9.71-10.19,4.06,0,8.06,1.94,10.56,5.46h2.2v-8.96h-2.2l-1.54,2.49c-2.15-1.35-5.65-2.81-10.9-2.81-10.74,0-16.18,6.26-16.18,14.19s5.89,14.32,16.02,14.32c4.93,0,9.18-1.57,12.04-3.37l1.86,3.02h2.12v-3.37c0-2.18.08-5.38.27-8.59h-7.59Z"/>
    <path class="cls-1" d="M277.97,123.74h-15.55v-2.12l3.52-1.85c-.34-1.25-.76-2.61-1.25-4.05h-11.05c-.53,1.55-.98,2.99-1.36,4.24l3.29,1.66v2.12h-12.18v-2.12l3.22-1.74c1.44-2.91,3.1-6.58,4.39-9.65,1.4-3.33,3.78-9.46,5.18-13.62h8.25c.49,1.51,2.61,7.04,4.88,12.3,1.78,4.2,3.71,8.21,5.18,10.82l3.48,1.89v2.12ZM259.24,102.06c-1.29,2.76-2.54,5.6-3.52,8.1l-.68,1.7h8.32c-.23-.53-.45-1.06-.64-1.63-1.06-2.69-2.31-5.56-3.48-8.17Z"/>
    <path class="cls-1" d="M315.01,123.74c-1.78-3.44-4.65-8.48-6.32-11.2-2.01-3.33-4.31-7.08-5.94-9.61-.11,2.38-.15,4.88-.15,7.26,0,3.1.11,6.36.3,9.35l3.75,2.08v2.12h-12.41v-2.12l3.67-2.04c.19-3.03.34-6.32.34-9.42s-.15-6.39-.34-9.38l-3.67-2.04v-2.12h13.77c1.82,3.44,4.65,8.44,6.32,11.16,1.97,3.25,4.16,6.77,5.75,9.27.08-2.19.11-4.5.11-6.89,0-3.25-.11-6.51-.3-9.38l-3.71-2.04v-2.12h12.41v2.12l-3.71,2.04c-.19,2.95-.3,6.21-.3,9.42,0,4.84.27,9.8.61,13.54h-10.18Z"/>
    <path class="cls-1" d="M348.14,114.09c2.12,3.56,6.55,6.36,11.84,6.36,3.75,0,5.83-1.32,5.83-3.37,0-5.83-19.94-1.7-19.94-12.52,0-5.6,4.92-8.59,12.3-8.59,3.78,0,7.08.95,9.5,2.46l1.63-2.19h2.04v8.44h-2.04c-1.85-2.72-5.6-4.92-10.44-4.92-2.91,0-5.41,1.21-5.41,3.33,0,5.83,19.94,1.1,19.94,12.71,0,6.96-6.81,8.59-12.11,8.59-4.35,0-8.4-1.29-11.2-3.22l-1.97,2.91h-2.08v-9.99h2.12Z"/>
  </g>
  <path class="cls-1" d="M37.91,135.92h24.08s.09,0,.13.02h6.56v-27.14c0-.31-.26-.56-.56-.56h-24.13c-.97,0-1.77-.79-1.77-1.77v-9.45c0-.46.18-.93.52-1.25l5.09-5.1c.34-.32.78-.5,1.25-.5h7.76c.48,0,.91.17,1.24.5l6.36,6.22c.22.21.58.21.8-.01l2.64-2.7c.12-.11.17-.25.17-.4s-.05-.29-.17-.39l-8.3-8.12h-8.67c-.64,0-1.15-.52-1.15-1.16v-3.57c0-.63.51-1.15,1.15-1.15h9.57c.31,0,.56-.26.56-.56v-15.28c0-.31-.26-.56-.56-.56H18.7c-.31,0-.56.25-.56.56v15.28c0,.31.25.56.56.56h9c.98,0,1.77.79,1.77,1.77v2.47c0,.97-.8,1.77-1.77,1.77h-3.55s-.04,0-.06,0h-4.39l-3.09,3.02-5.37,5.37-.45.46c-.11.1-.17.25-.17.4v52.07c0,.31.25.56.56.56h56.95c.31,0,.56-.25.56-.56v-3.76c0-.34-.28-.61-.62-.61h-5.95s-.09.01-.13.01H17.3c-.97,0-1.76-.79-1.76-1.76v-25.65c0-.98.78-1.77,1.76-1.77h18.24c.97,0,1.77.8,1.77,1.77v20.4c0,.33.27.6.61.6ZM43.99,113.15h18c.98,0,1.77.8,1.77,1.77v14.69c0,.77-.62,1.39-1.39,1.39h-18.38c-.97,0-1.77-.79-1.77-1.77v-14.31c0-.97.8-1.77,1.77-1.77ZM35.54,108.23h-18.24c-.97,0-1.76-.79-1.76-1.77v-9.32c0-.46.18-.93.52-1.25l3.64-3.65,1.45-1.46c.13-.12.27-.22.42-.3l.04-.02c.24-.12.51-.18.79-.18h2.99s8.43,0,8.43,0c.31,0,.56-.25.56-.58v-14.7c0-.31-.25-.56-.56-.56h-8.99c-.98,0-1.77-.8-1.77-1.77v-3.03c0-.97.78-1.76,1.77-1.76h29.51c.98,0,1.77.79,1.77,1.76v3.03c0,.97-.79,1.77-1.77,1.77h-8.95c-.31,0-.56.25-.56.56v11.72l-7.35,7.35c-.11.1-.17.25-.17.4v11.98c0,.97-.8,1.77-1.77,1.77Z"/>
</svg>