<?xml version="1.0" encoding="UTF-8"?>
<svg id="Capa_1" data-name="Capa 1" xmlns="http://www.w3.org/2000/svg" viewBox="0 0 1080 1080">
  <defs>
    <style>
      .cls-1 {
        fill: #0e0f0f;
      }
    </style>
  </defs>
  <path class="cls-1" d="M771.84,837.78l-464.86-1.05c-34.21-5.98-59.27-30.92-64.93-65.23l.86-381.18,148.79.35c.14-82.86,67.84-148.91,149.61-148.45,81.32.45,148,66.69,147.82,149.14l148.81.26-.91,380.88c-5.43,30.11-31.26,65.36-65.2,65.28ZM639.65,391.1c-.69-57.9-47.05-99.94-100.69-99.25-53.43.69-97.65,44.35-97.67,98.92l198.35.33ZM688.72,569.76l-49.49-.21.15-128.72-198.13-.45-.44,128.74-49.53-.06.24-128.8-99.12-.18-.74,320.82c-.04,16.44,11.31,26.28,27.33,26.32l443.43.94c14.1.03,25.01-10.83,25.04-24.9l.76-322.05-99.11-.25-.4,128.83Z"/>
</svg>