<?xml version="1.0" encoding="UTF-8"?>
<svg id="Capa_1" data-name="Capa 1" xmlns="http://www.w3.org/2000/svg" viewBox="0 0 1080 1080">
  <defs>
    <style>
      .cls-1 {
        fill: #0e0f0f;
      }
    </style>
  </defs>
  <path class="cls-1" d="M810.08,837.81l-49.61-.11.09-126.72c.03-38.5-32.15-71.43-70.93-71.52l-298.62-.68c-38.16-.09-70.93,31.99-71.11,70.03l-.6,127.89-49.61-.11.31-137.13c8.06-61.96,58.13-110.53,122.55-110.36l297.04.74c66.96.17,120.83,55.98,120.71,122.57l-.22,125.41Z"/>
  <path class="cls-1" d="M528.48,242.73c82.51-6.98,153.86,54.73,160.64,135.72,6.85,81.87-54,153.84-135.8,160.71-81.29,6.82-153.21-53.59-160.56-134.88-7.37-81.39,52.72-154.53,135.72-161.54ZM527.14,292.8c-55.36,7.69-92.35,59.09-84.29,112.79,8.06,53.72,58.03,91.03,111.81,83.52,54.03-7.55,91.97-57.67,84.42-111.77-7.47-53.57-56.76-92.21-111.94-84.54Z"/>
</svg>