<?xml version="1.0" encoding="UTF-8"?>
<svg id="Capa_1" data-name="Capa 1" xmlns="http://www.w3.org/2000/svg" viewBox="0 0 1080 1080">
  <defs>
    <style>
      .cls-1 {
        fill: #0e0f0f;
      }
    </style>
  </defs>
  <path class="cls-1" d="M647.64,682.68c-97.06,79.11-238.22,73.48-328.62-14.08-44.49-43.09-72.03-101.53-75.21-164.34l-.29-14.09c-.1-4.82.08-9.91.36-14.7,7.29-125.51,109.05-226.27,234.58-232.42,4.39-.22,9.16-.38,13.52-.26l14.12.37c59.74,3.23,115.37,28.58,157.62,69.49,92.92,89.99,100.74,235.83,18.98,335.08l153.8,154.42-35.04,35.1-153.83-154.57ZM479.17,292.57c-110,6.78-192.79,101.96-185.86,210.35,6.96,108.95,101.01,192.14,209.94,185.52,109.25-6.64,192.82-101.15,185.9-210.57-6.82-107.93-100.32-192.07-209.97-185.3Z"/>
</svg>